<?xml version="1.0" encoding="UTF-8" standalone="no"?>
<!DOCTYPE svg PUBLIC "-//W3C//DTD SVG 1.1//EN" "http://www.w3.org/Graphics/SVG/1.1/DTD/svg11.dtd">
<!-- Created with Vectornator (http://vectornator.io/) -->
<svg height="100%" stroke-miterlimit="10" style="fill-rule:nonzero;clip-rule:evenodd;stroke-linecap:round;stroke-linejoin:round;" version="1.1" viewBox="0 0 3370.82 2384.24" width="100%" xml:space="preserve" xmlns="http://www.w3.org/2000/svg" xmlns:vectornator="http://vectornator.io" xmlns:xlink="http://www.w3.org/1999/xlink">
<defs/>
<g id="Layer-1" vectornator:layerName="Layer 1">
<g opacity="1" vectornator:layerName="Group 1">
<path d="M1495.22 671.531L1473.12 684.281L1473.12 708.031L1473.12 709.812L1473.12 921.438L1344.75 847.312L1172.22 946.938L1172.22 1146.19L1344.75 1245.78L1517.28 1146.19L1517.28 1089.84L1517.28 946.938L1517.28 709.844L1517.31 709.812L1517.31 684.281L1495.22 671.531ZM1344.75 899.594L1472.03 973.062L1472.03 1120.06L1344.75 1193.53L1217.47 1120.06L1217.47 973.062L1344.75 899.594Z" fill="#008c9e" fill-rule="nonzero" opacity="1" stroke="none" vectornator:layerName="Curve 1"/>
<path d="M1370.9 1060.36L1353.27 1060.66L1344.71 1076.1L1344.69 1076.13L1353.78 1091.28L1393.35 1157.18L1437.69 1231.04L1437.88 1230.93L1446.79 1245.78L1464.45 1245.48L1473.03 1230.04L1463.93 1214.9L1463.66 1214.9L1380.03 1075.56L1380.05 1075.54L1370.95 1060.36L1370.9 1060.36Z" fill="#008c9e" fill-rule="nonzero" opacity="1" stroke="none" vectornator:layerName="Curve 3"/>
</g>
<path d="M2165.46 617.868L2143.37 630.618L2143.37 654.368L2143.37 656.149L2143.37 867.774L2014.99 793.649L1842.46 893.274L1842.46 1092.52L2014.99 1192.12L2187.53 1092.52L2187.53 1036.18L2187.53 893.274L2187.53 656.18L2187.56 656.149L2187.56 630.618L2165.46 617.868ZM2014.99 845.93L2142.28 919.399L2142.28 1066.4L2014.99 1139.87L1887.71 1066.4L1887.71 919.399L2014.99 845.93Z" fill="#008c9e" fill-rule="nonzero" opacity="1" stroke="none" vectornator:layerName="Curve 1"/>
<path d="M2096.35 1192.12L2084.4 1185.17L2084.4 1172.22L2084.4 1171.25L2084.4 1055.87L2015 1096.29L1921.73 1041.97L1921.73 933.346L2015 879.049L2108.27 933.346L2108.27 964.063L2108.27 1041.97L2108.27 1171.23L2108.29 1171.25L2108.29 1185.17L2096.35 1192.12ZM2015 1067.78L2083.81 1027.73L2083.81 947.588L2015 907.535L1946.19 947.588L1946.19 1027.73L2015 1067.78Z" fill="#008c9e" fill-rule="nonzero" opacity="1" stroke="none" vectornator:layerName="Curve 2"/>
<path d="M2725.46 617.868L2703.37 630.618L2703.37 654.368L2703.37 656.149L2703.37 867.774L2574.99 793.649L2402.46 893.274L2402.46 1092.52L2574.99 1192.12L2747.53 1092.52L2747.53 1036.18L2747.53 893.274L2747.53 656.18L2747.56 656.149L2747.56 630.618L2725.46 617.868Z" fill="#008c9e" fill-rule="nonzero" opacity="1" stroke="none" vectornator:layerName="Curve 4"/>
<path d="M2656.35 1192.12L2644.4 1185.17L2644.4 1172.22L2644.4 1171.25L2644.4 1055.87L2575 1096.29L2481.73 1041.97L2481.73 933.346L2575 879.049L2668.27 933.346L2668.27 964.063L2668.27 1041.97L2668.27 1171.23L2668.29 1171.25L2668.29 1185.17L2656.35 1192.12ZM2575 1067.78L2643.81 1027.73L2643.81 947.588L2575 907.535L2506.19 947.588L2506.19 1027.73L2575 1067.78Z" fill="#ffffff" fill-rule="nonzero" opacity="1" stroke="none" vectornator:layerName="Curve 5"/>
<path d="M903.875 1523.31L903.875 1791.66L903.875 2059.97L1158.28 2059.97L1158.28 2059.62C1162.9 2059.86 1167.55 2059.97 1172.22 2059.97C1320.42 2059.97 1440.56 1939.85 1440.56 1791.66C1440.56 1643.46 1320.42 1523.31 1172.22 1523.31C1167.55 1523.31 1162.9 1523.42 1158.28 1523.66L1158.28 1523.31L903.875 1523.31Z" fill="#008c9e" fill-rule="nonzero" opacity="1" stroke="none" vectornator:layerName="Curve 6"/>
<path d="M1003.14 1920.32L966.237 1726.88L1115.31 1598.19L1301.3 1662.96L1338.2 1856.4L1189.12 1985.09L1003.14 1920.32Z" fill="#ffffff" fill-rule="nonzero" opacity="1" stroke="none" vectornator:layerName="Polygon 1"/>
</g>
</svg>
